<?xml version="1.0" standalone="no"?>
<!DOCTYPE svg PUBLIC "-//W3C//DTD SVG 20010904//EN"
 "http://www.w3.org/TR/2001/REC-SVG-20010904/DTD/svg10.dtd">
<svg version="1.0" xmlns="http://www.w3.org/2000/svg"
 width="200.000000pt" height="200.000000pt" viewBox="0 0 200.000000 200.000000"
 preserveAspectRatio="xMidYMid meet">
<metadata>
Created by potrace 1.14, written by Peter Selinger 2001-2017
</metadata>
<g transform="translate(0.000000,200.000000) scale(0.100000,-0.100000)"
fill="#000000" stroke="none">
<path d="M990 1554 c0 -11 -6 -14 -20 -9 -33 10 -84 9 -88 -3 -2 -6 -13 -7
-31 -2 -16 4 -35 3 -45 -2 -11 -6 -28 -6 -48 1 -19 7 -36 7 -48 1 -20 -11 -45
-90 -37 -120 3 -12 -2 -35 -11 -51 -14 -25 -22 -29 -45 -25 -17 4 -26 2 -22
-4 3 -6 13 -10 21 -10 12 0 12 -3 2 -21 -9 -15 -21 -19 -41 -16 -15 2 -32 -2
-38 -10 -6 -7 -21 -13 -33 -14 -11 0 -15 -3 -8 -6 17 -7 15 -23 -3 -23 -9 0
-18 7 -21 15 -8 19 -40 20 -47 1 -3 -8 1 -20 9 -26 20 -17 18 -40 -4 -40 -24
0 -59 -26 -49 -37 5 -4 13 0 18 10 6 9 18 17 29 17 10 0 27 11 38 25 25 31 36
32 28 2 -5 -21 -3 -23 28 -19 19 2 37 -1 41 -8 12 -19 15 -18 -162 -45 -20 -3
-33 -1 -33 5 0 6 -10 8 -26 4 -24 -6 -26 -5 -20 17 7 23 6 23 -8 5 -15 -19
-23 -67 -10 -53 4 3 21 -9 39 -28 18 -18 48 -41 67 -50 32 -15 32 -15 10 2
-53 40 -97 82 -91 87 3 3 21 1 40 -4 50 -15 149 -12 204 5 57 17 68 13 28 -8
-83 -44 -143 -79 -149 -88 -3 -6 17 1 45 15 28 14 52 26 53 26 5 0 1 -80 -4
-85 -3 -4 -2 -21 2 -40 4 -19 5 -33 1 -30 -9 5 -5 -134 3 -142 3 -3 1 -15 -5
-26 -8 -14 -8 -18 0 -13 6 4 11 3 11 -3 0 -5 -5 -13 -11 -17 -8 -5 -6 -10 5
-16 20 -11 21 -29 1 -21 -10 3 -15 1 -13 -8 2 -7 -6 -14 -17 -16 l-20 -3 20 9
c16 8 17 10 3 10 -9 1 -20 -3 -23 -9 -3 -6 -11 -10 -16 -10 -6 0 -7 6 -3 13 6
8 3 8 -9 -1 -20 -17 -67 -23 -67 -9 0 5 -7 4 -15 -3 -9 -8 -15 -9 -15 -2 0 6
5 14 11 18 8 4 7 9 -2 15 -12 8 -11 11 1 19 8 5 10 10 4 10 -5 0 -15 -5 -21
-11 -8 -8 -13 -8 -17 0 -4 6 -3 11 2 11 5 0 12 9 15 20 3 11 1 20 -4 20 -5 0
-9 7 -9 16 0 9 -10 24 -22 33 -18 15 -19 19 -5 24 12 4 14 2 10 -10 -4 -11 -3
-14 6 -9 7 5 10 15 7 23 -4 9 1 21 11 29 17 12 17 12 -2 11 -17 -2 -19 3 -17
30 2 17 -2 34 -8 38 -7 4 -9 -2 -6 -19 3 -14 0 -28 -5 -31 -5 -4 -9 11 -9 32
0 21 -7 51 -15 67 -16 30 -16 30 5 11 11 -10 20 -13 20 -7 0 6 -5 14 -10 17
-8 5 -8 11 0 20 8 9 6 14 -6 19 -10 4 -14 12 -10 22 4 9 0 27 -9 40 -18 29 -4
76 30 98 13 9 25 28 27 43 2 19 12 32 31 41 16 8 27 15 25 17 -2 1 -37 0 -80
-2 -63 -5 -77 -9 -81 -24 -6 -22 10 -29 42 -17 15 5 28 5 35 -2 7 -7 2 -10
-16 -10 -17 0 -33 -10 -46 -27 -19 -26 -20 -27 -26 -5 -9 28 -43 29 -51 2 -6
-20 -7 -20 -24 1 -15 19 -18 20 -30 5 -11 -13 -11 -25 -3 -59 6 -23 14 -74 17
-112 3 -39 12 -91 20 -115 l14 -45 1 35 c1 19 4 27 7 18 2 -10 13 -18 24 -18
25 0 37 -33 41 -112 2 -45 0 -62 -9 -61 -7 2 -17 -6 -23 -17 -8 -15 -6 -21 7
-29 16 -9 16 -12 3 -21 -8 -5 -26 -10 -40 -11 -17 -1 -19 -3 -7 -6 19 -5 23
-23 5 -23 -7 0 1 -11 17 -25 18 -15 39 -22 53 -20 13 2 31 1 39 -2 14 -6 14
-7 -3 -14 -25 -9 -8 -15 69 -24 52 -6 57 -9 57 -31 0 -13 5 -24 11 -24 5 0 8
4 4 9 -3 5 -1 13 5 16 6 4 10 3 9 -2 -3 -19 2 -33 11 -33 6 0 10 6 9 13 -1 6
-1 23 0 37 1 20 3 22 11 10 5 -8 10 -25 10 -37 0 -16 6 -23 20 -23 16 0 20 7
20 34 0 32 3 34 47 45 50 13 62 7 64 -34 0 -15 3 -12 11 10 19 52 58 67 58 22
0 -20 1 -20 14 -2 12 17 15 16 55 -20 36 -33 39 -40 24 -46 -11 -4 -3 -8 26
-13 24 -4 46 -5 48 -2 2 2 -10 14 -26 26 -17 12 -31 26 -31 32 0 7 10 2 23 -9
25 -24 135 -83 154 -83 7 0 13 5 13 10 0 15 37 12 54 -5 18 -19 65 -20 72 -2
3 8 22 14 46 15 41 2 113 36 138 66 7 9 17 16 23 16 6 0 1 -10 -11 -23 -12
-13 -22 -28 -22 -35 0 -7 -7 -9 -17 -5 -10 3 -15 3 -11 -2 4 -4 3 -14 -3 -21
-15 -18 3 -25 40 -14 17 5 31 6 31 2 0 -4 5 0 10 8 7 11 9 7 6 -16 -1 -17 4
-39 12 -50 14 -18 14 -18 8 3 -6 18 -4 20 14 16 12 -3 20 0 20 7 0 7 7 10 16
6 13 -5 15 -1 12 19 -7 36 43 59 114 53 45 -5 49 -4 33 8 -10 7 -23 15 -28 17
-6 2 -7 11 -4 21 5 14 11 16 20 8 9 -8 21 -7 40 3 15 8 27 11 27 7 0 -3 6 3
14 13 8 11 13 22 11 25 -2 3 3 32 12 65 8 33 19 79 23 103 5 23 13 50 18 60 5
9 8 44 7 77 -2 36 2 63 9 67 8 5 7 11 -2 20 -13 13 -16 29 -4 27 52 -8 32 16
-28 34 -27 8 -44 19 -46 30 -3 21 -1 21 106 2 80 -13 154 -15 166 -2 12 12 -8
47 -36 64 -30 17 -32 37 -2 26 15 -6 15 -5 3 10 -12 15 -11 17 3 17 21 0 20 6
-4 40 -17 24 -35 32 -108 48 -48 11 -94 20 -102 20 -25 1 -73 9 -119 22 -24 6
-50 9 -59 5 -8 -3 -23 3 -34 15 -16 17 -23 19 -34 9 -10 -8 -14 -8 -14 0 0 6
5 11 10 11 6 0 10 9 10 20 0 19 -14 24 -95 34 -16 2 -49 7 -71 11 -27 5 -44 3
-48 -4 -4 -6 -14 -11 -22 -11 -8 0 -12 5 -9 10 3 6 1 10 -5 10 -6 0 -8 5 -5
10 3 6 1 10 -6 10 -6 0 -9 -8 -6 -19 6 -26 -20 -16 -28 10 -4 10 -15 19 -26
19 -11 0 -18 4 -15 9 4 5 0 11 -6 14 -7 2 10 2 37 0 39 -3 46 -2 33 7 -10 6
-48 14 -84 17 -46 4 -73 12 -86 25 -15 15 -18 16 -18 2z m60 -38 c0 -2 -13 -6
-29 -8 -17 -2 -28 -1 -25 4 5 8 54 12 54 4z m-70 -36 c0 -5 -4 -10 -10 -10 -5
0 -10 5 -10 10 0 6 5 10 10 10 6 0 10 -4 10 -10z m75 -11 c12 -19 -5 -23 -22
-6 -16 16 -16 17 -1 17 9 0 20 -5 23 -11z m50 1 c3 -5 1 -10 -4 -10 -6 0 -11
5 -11 10 0 6 2 10 4 10 3 0 8 -4 11 -10z m22 -56 c-3 -3 -12 -4 -19 -1 -8 3
-5 6 6 6 11 1 17 -2 13 -5z m152 -21 c10 -22 51 -174 51 -189 0 -4 -13 12 -29
37 -15 25 -40 54 -54 65 -22 18 -23 22 -9 30 14 9 13 14 -7 47 l-23 37 30 -2
c21 -1 34 -10 41 -25z m79 13 c46 -10 62 -17 62 -26 0 -14 -61 -5 -70 10 -5 9
-9 9 -14 1 -4 -6 -1 -13 6 -16 7 -3 32 -11 55 -19 52 -18 90 -51 111 -96 9
-19 20 -38 25 -41 5 -4 7 -17 5 -30 -5 -26 -3 -29 -30 42 -15 42 -63 84 -110
98 -52 15 -91 39 -83 50 3 5 -2 11 -10 15 -24 9 -18 29 8 23 12 -3 32 -8 45
-11z m-449 -63 c-18 -32 -41 -71 -51 -88 -10 -16 -18 -37 -18 -45 0 -8 -7 -27
-14 -42 -15 -28 -4 -40 11 -15 4 8 15 17 23 20 8 4 30 16 49 28 18 11 36 18
38 15 3 -3 12 2 20 10 11 11 19 12 28 4 10 -8 15 -8 20 0 4 6 14 9 22 6 9 -4
21 -2 28 4 9 8 15 8 20 0 3 -5 17 -7 30 -4 12 3 26 1 29 -4 3 -6 15 -8 26 -5
12 3 20 0 20 -7 0 -8 8 -10 21 -7 12 3 22 0 26 -9 3 -8 9 -11 14 -8 16 10 94
-47 82 -60 -4 -3 0 -6 8 -6 18 -1 52 -47 44 -60 -4 -6 -1 -9 6 -8 6 2 23 -19
37 -46 21 -41 23 -55 15 -77 -8 -20 -8 -29 1 -33 7 -3 6 -8 -4 -15 -12 -8 -12
-11 -1 -11 7 0 11 -6 7 -15 -3 -8 -2 -15 2 -15 4 0 7 -20 8 -45 1 -71 -22 -57
-29 18 -10 116 -81 228 -176 277 -44 22 -55 25 -47 11 4 -5 -2 -8 -11 -6 -10
2 -22 4 -28 4 -5 1 -4 5 4 10 20 13 -69 30 -127 24 -55 -5 -156 -50 -194 -87
-73 -70 -103 -135 -118 -251 l-8 -70 1 98 c0 53 5 97 10 97 5 0 6 8 3 17 -4
10 -4 14 0 10 4 -4 22 15 39 41 18 26 40 53 49 61 16 14 12 36 -5 25 -5 -3 -7
-10 -4 -15 4 -5 0 -9 -9 -9 -8 0 -16 -6 -19 -12 -2 -7 -8 -10 -13 -5 -4 4 17
31 47 59 30 29 40 42 22 30 -42 -30 -85 -81 -77 -94 7 -11 -15 -58 -27 -58 -4
0 -2 12 6 27 8 15 12 30 9 35 -5 7 23 58 39 69 5 3 10 26 12 50 2 24 1 36 -2
27 -2 -10 -9 -18 -15 -18 -6 0 -8 -8 -5 -19 3 -13 -1 -18 -17 -18 -11 0 -29
-3 -39 -8 -29 -12 -36 7 -16 40 10 17 19 25 19 18 0 -7 9 -17 21 -23 20 -11
20 -11 4 14 -10 14 -22 26 -27 26 -5 0 -8 23 -7 51 2 37 8 54 21 62 23 15 24
31 1 22 -15 -5 -16 -4 -6 6 7 7 32 14 55 15 24 1 37 -1 31 -3 -9 -3 -10 -10
-3 -23 13 -23 0 -33 -34 -24 -13 3 -33 1 -43 -5 -15 -9 -12 -10 19 -11 34 0
38 -3 46 -32 l9 -33 12 30 c6 17 16 38 21 47 6 10 10 25 10 35 0 23 39 63 62
63 18 0 16 -6 -13 -57z m135 -14 c-2 -4 -18 -7 -34 -7 -16 1 -27 5 -24 10 3 4
18 7 34 6 16 -1 27 -5 24 -9z m91 1 c-3 -5 -13 -10 -21 -10 -8 0 -14 5 -14 10
0 6 9 10 21 10 11 0 17 -4 14 -10z m-485 -34 c0 -2 -8 -10 -17 -17 -16 -13
-17 -12 -4 4 13 16 21 21 21 13z m776 -28 c4 -6 3 -8 -4 -4 -6 3 -13 2 -17 -4
-3 -5 -11 -10 -17 -10 -7 0 -6 6 2 15 15 18 26 19 36 3z m199 -44 c8 -13 9
-34 3 -71 -9 -49 -10 -51 -27 -35 -15 14 -16 22 -7 47 14 37 14 66 1 62 -5 -1
-9 -9 -8 -17 2 -11 1 -12 -4 -1 -4 11 -7 11 -14 0 -6 -9 -9 -10 -9 -2 0 16 30
45 43 40 6 -2 16 -12 22 -23z m-205 6 c8 -5 11 -12 7 -16 -4 -4 -15 0 -24 9
-18 18 -8 23 17 7z m157 -70 c-6 -17 -15 -26 -20 -21 -5 5 -4 18 2 30 17 32
31 25 18 -9z m-33 -31 c3 -17 6 -44 6 -60 0 -16 5 -29 10 -29 6 0 10 11 10 24
0 14 5 28 10 31 6 3 10 -5 10 -19 0 -14 -5 -28 -10 -31 -6 -4 -7 -11 -4 -17 5
-7 1 -9 -9 -5 -22 8 -32 -10 -28 -53 2 -19 0 -32 -3 -29 -8 7 -13 219 -5 219
4 0 9 -14 13 -31z m-1285 -14 c7 4 8 -29 2 -45 -4 -8 -20 34 -20 50 1 10 2 11
6 2 2 -6 8 -10 12 -7z m431 -14 c0 -6 -4 -13 -10 -16 -5 -3 -10 1 -10 9 0 9 5
16 10 16 6 0 10 -4 10 -9z m60 2 c-14 -2 -31 -12 -37 -21 -11 -14 -13 -14 -13
-1 0 23 10 29 44 28 27 -2 28 -2 6 -6z m505 -23 c3 -5 1 -10 -4 -10 -6 0 -11
5 -11 10 0 6 2 10 4 10 3 0 8 -4 11 -10z m-225 -16 c0 -8 -4 -12 -10 -9 -5 3
-10 10 -10 16 0 5 5 9 10 9 6 0 10 -7 10 -16z m67 -10 c-1 -1 -15 0 -32 4 -30
6 -30 6 -5 12 14 4 28 2 32 -4 4 -6 6 -11 5 -12z m-407 -1 c0 -16 2 -16 11 -3
9 13 10 13 6 0 -4 -16 -47 -24 -47 -9 0 5 5 9 11 9 5 0 7 5 4 10 -3 6 -1 10 4
10 6 0 11 -8 11 -17z m310 2 c0 -8 -3 -14 -7 -13 -5 1 -18 -3 -31 -10 -12 -7
-27 -10 -34 -6 -7 4 2 14 23 25 42 22 49 23 49 4z m-290 -46 c0 -4 -9 -10 -20
-14 -23 -7 -48 4 -31 14 14 9 51 9 51 0z m190 -13 c0 -8 -5 -18 -10 -21 -19
-12 -57 -80 -65 -115 -11 -51 -8 -114 9 -153 28 -67 130 -157 178 -157 7 0 19
-9 26 -20 12 -19 11 -20 -15 -14 -76 18 -149 72 -189 140 -55 94 -38 278 31
336 25 21 35 22 35 4z m703 -24 c-3 -15 -13 -22 -29 -22 -17 0 -22 4 -18 15 4
8 15 15 25 15 10 0 19 5 19 12 0 6 2 9 5 7 2 -3 2 -15 -2 -27z m-559 -89 c21
3 49 2 62 -3 30 -12 56 -63 52 -105 -1 -19 1 -37 5 -41 4 -4 7 2 7 14 0 28 16
29 23 2 3 -11 2 -18 -3 -15 -4 2 -16 -5 -26 -16 -17 -19 -17 -20 2 -14 13 5
10 -1 -11 -20 -31 -28 -15 -24 18 3 16 14 22 12 67 -33 46 -45 48 -50 34 -66
-25 -28 -85 -53 -94 -39 -4 7 -18 9 -36 4 -28 -6 -28 -6 -9 10 16 13 17 15 2
10 -13 -5 -16 -2 -11 10 3 9 2 16 -2 16 -5 0 -22 13 -39 28 -16 15 -42 35 -57
45 -16 9 -27 21 -26 25 1 4 -8 25 -20 47 -24 46 -30 40 -6 -6 20 -39 12 -48
-11 -13 -9 14 -32 40 -51 56 -19 17 -34 34 -34 40 0 5 -7 16 -15 24 -22 22
-18 54 10 97 l26 37 52 -51 c48 -47 54 -51 91 -46z m-351 68 c2 -10 0 -25 -5
-32 -8 -11 -9 -11 -5 1 2 8 -2 23 -11 33 -14 15 -14 17 0 17 9 0 18 -9 21 -19z
m814 -3 c-3 -8 -6 -5 -6 6 -1 11 2 17 5 13 3 -3 4 -12 1 -19z m-377 -28 c8 -5
11 -10 5 -10 -5 0 -17 5 -25 10 -8 5 -10 10 -5 10 6 0 17 -5 25 -10z m455 -6
c-11 -8 -25 -12 -32 -10 -7 3 -13 1 -13 -4 0 -6 6 -10 13 -10 8 0 9 -3 1 -8
-6 -4 -14 -14 -17 -22 -3 -8 -6 4 -6 28 l-1 42 38 0 c35 -1 36 -1 17 -16z
m-350 -34 c-12 -11 -17 -12 -27 -1 -11 10 -9 15 6 27 25 18 43 -4 21 -26z
m-25 -43 c0 -6 -6 -3 -12 8 -6 11 -18 29 -27 40 -9 12 -4 8 12 -7 15 -16 27
-34 27 -41z m-529 -10 c-10 -9 -11 -8 -5 6 3 10 9 15 12 12 3 -3 0 -11 -7 -18z
m643 -3 c3 -8 2 -12 -4 -9 -6 3 -10 10 -10 16 0 14 7 11 14 -7z m256 -9 c-7
-8 -16 -13 -20 -10 -5 3 -10 -1 -13 -7 -2 -7 -8 -10 -12 -5 -10 8 23 36 44 37
11 0 11 -3 1 -15z m-713 -11 c-3 -3 -12 -4 -19 -1 -8 3 -5 6 6 6 11 1 17 -2
13 -5z m348 -19 c-4 -38 -14 -42 -13 -6 1 17 4 31 9 31 4 0 6 -11 4 -25z m425
11 c0 -3 -4 -8 -10 -11 -5 -3 -10 -1 -10 4 0 6 5 11 10 11 6 0 10 -2 10 -4z
m-712 -51 c-3 -3 -13 7 -23 22 l-17 28 23 -22 c12 -12 20 -25 17 -28z m392 30
c0 -8 -7 -15 -15 -15 -26 0 -18 20 13 29 1 1 2 -6 2 -14z m243 -15 c-3 -11 -9
-20 -15 -20 -5 0 -4 9 2 20 6 11 12 20 14 20 2 0 2 -9 -1 -20z m-639 -49 c17
-19 48 -52 70 -72 51 -48 31 -61 -32 -22 -46 29 -92 91 -92 126 0 23 14 15 54
-32z m606 39 c0 -5 -2 -10 -4 -10 -3 0 -8 5 -11 10 -3 6 -1 10 4 10 6 0 11 -4
11 -10z m-70 -10 c0 -5 -4 -10 -10 -10 -5 0 -10 5 -10 10 0 6 5 10 10 10 6 0
10 -4 10 -10z m-143 -35 c-3 -20 -2 -35 4 -35 6 0 7 5 4 10 -3 6 -1 10 4 10
13 0 14 -17 2 -24 -15 -10 -41 5 -41 22 0 12 -3 13 -12 4 -21 -21 -29 -13 -12
13 13 20 19 23 31 13 8 -6 13 -7 12 -2 -2 14 0 24 7 24 4 0 4 -16 1 -35z
m-537 -85 c33 -49 36 -57 16 -41 -24 20 -66 105 -65 133 0 16 6 9 16 -22 9
-25 23 -56 33 -70z m661 81 c-8 -5 -11 -16 -8 -26 4 -9 3 -13 -3 -10 -5 3 -16
-8 -25 -24 -18 -36 -19 -45 -3 -35 7 4 8 3 4 -5 -4 -6 -11 -9 -16 -6 -4 3 -13
-1 -19 -9 -9 -11 -9 -15 1 -18 8 -3 9 -6 1 -11 -20 -12 -22 21 -3 46 10 13 26
42 35 65 11 26 24 42 34 42 13 0 13 -2 2 -9z m49 5 c0 -3 -4 -8 -10 -11 -5 -3
-10 -1 -10 4 0 6 5 11 10 11 6 0 10 -2 10 -4z m120 -46 c0 -11 -4 -20 -9 -20
-6 0 -9 9 -8 20 1 11 5 20 9 20 4 0 8 -9 8 -20z m-890 -4 c0 -10 -16 -15 -60
-18 -33 -1 -60 -1 -60 1 0 13 39 28 76 30 32 1 44 -3 44 -13z m-316 -42 c9 -3
16 -11 16 -18 0 -7 -18 -10 -52 -7 -50 3 -51 4 -27 17 27 15 40 17 63 8z m343
0 c-3 -3 -12 -4 -19 -1 -8 3 -5 6 6 6 11 1 17 -2 13 -5z m338 -61 c-8 -7 -22
-13 -32 -13 -15 1 -15 3 5 13 18 10 20 15 10 26 -11 11 -9 11 8 0 18 -10 20
-15 9 -26z m-95 -69 c0 -2 -7 -4 -15 -4 -8 0 -15 4 -15 10 0 5 7 7 15 4 8 -4
15 -8 15 -10z"/>
<path d="M775 1220 c-19 -8 -19 -9 3 -9 12 -1 22 4 22 9 0 6 -1 10 -2 9 -2 0
-12 -4 -23 -9z"/>
<path d="M997 1204 c-54 -13 -117 -39 -117 -49 0 -2 21 5 48 17 38 18 67 22
154 22 106 1 116 10 22 19 -27 3 -75 -1 -107 -9z"/>
<path d="M1065 1179 c-10 -15 3 -25 16 -12 7 7 7 13 1 17 -6 3 -14 1 -17 -5z"/>
<path d="M1110 1175 c0 -8 6 -15 14 -15 8 0 21 -3 30 -6 11 -4 16 -1 16 11 0
12 -5 15 -20 10 -11 -4 -20 -2 -20 4 0 6 -4 11 -10 11 -5 0 -10 -7 -10 -15z"/>
<path d="M1200 1186 c0 -2 9 -6 20 -9 11 -3 18 -1 14 4 -5 9 -34 13 -34 5z"/>
<path d="M983 1167 c-2 -4 -12 -6 -20 -5 -9 2 -18 -3 -20 -10 -4 -9 2 -11 19
-7 12 3 34 7 47 8 14 2 27 9 28 14 4 12 -46 12 -54 0z"/>
<path d="M1250 1166 c0 -2 7 -7 16 -10 8 -3 12 -2 9 4 -6 10 -25 14 -25 6z"/>
<path d="M1190 1149 c0 -5 5 -7 10 -4 6 3 10 8 10 11 0 2 -4 4 -10 4 -5 0 -10
-5 -10 -11z"/>
<path d="M910 1134 c0 -8 5 -12 10 -9 6 3 10 10 10 16 0 5 -4 9 -10 9 -5 0
-10 -7 -10 -16z"/>
<path d="M1220 1140 c0 -5 5 -10 10 -10 6 0 10 5 10 10 0 6 -4 10 -10 10 -5 0
-10 -4 -10 -10z"/>
<path d="M1290 1146 c0 -2 8 -10 18 -17 15 -13 16 -12 3 4 -13 16 -21 21 -21
13z"/>
<path d="M1256 1131 c-4 -5 -2 -12 3 -15 5 -4 12 -2 15 3 4 5 2 12 -3 15 -5 4
-12 2 -15 -3z"/>
<path d="M870 1120 c0 -5 7 -10 15 -10 8 0 15 5 15 10 0 6 -7 10 -15 10 -8 0
-15 -4 -15 -10z"/>
<path d="M1285 1110 c-3 -5 -1 -10 4 -10 6 0 11 5 11 10 0 6 -2 10 -4 10 -3 0
-8 -4 -11 -10z"/>
<path d="M1345 1100 c10 -11 20 -20 23 -20 3 0 -3 9 -13 20 -10 11 -20 20 -23
20 -3 0 3 -9 13 -20z"/>
<path d="M842 1101 c2 -7 7 -12 11 -12 12 1 9 15 -3 20 -7 2 -11 -2 -8 -8z"/>
<path d="M1310 1094 c0 -10 31 -36 37 -31 3 3 -2 13 -10 22 -16 15 -27 19 -27
9z"/>
<path d="M1356 1051 c-4 -5 -2 -12 3 -15 5 -4 12 -2 15 3 4 5 2 12 -3 15 -5 4
-12 2 -15 -3z"/>
<path d="M1380 1010 c0 -5 5 -10 10 -10 6 0 10 5 10 10 0 6 -4 10 -10 10 -5 0
-10 -4 -10 -10z"/>
<path d="M1400 979 c0 -5 5 -7 10 -4 6 3 10 8 10 11 0 2 -4 4 -10 4 -5 0 -10
-5 -10 -11z"/>
<path d="M1415 950 c-3 -5 1 -10 9 -10 9 0 16 5 16 10 0 6 -4 10 -9 10 -6 0
-13 -4 -16 -10z"/>
<path d="M1610 1210 c0 -5 5 -10 11 -10 5 0 7 5 4 10 -3 6 -8 10 -11 10 -2 0
-4 -4 -4 -10z"/>
<path d="M906 914 c-5 -14 -4 -15 9 -4 17 14 19 20 6 20 -5 0 -12 -7 -15 -16z"/>
<path d="M887 883 c-4 -3 -7 -13 -7 -22 1 -13 3 -13 11 2 11 19 8 33 -4 20z"/>
<path d="M962 878 c-7 -7 -12 -16 -12 -22 0 -5 7 -1 16 10 14 18 15 18 9 -6
-5 -22 -5 -23 6 -7 14 23 -1 43 -19 25z"/>
<path d="M1050 861 c0 -11 62 -88 75 -94 6 -3 12 9 13 25 1 17 -2 27 -7 23 -6
-3 -7 -13 -4 -22 4 -11 3 -14 -5 -9 -17 11 -15 33 6 46 12 8 13 10 2 8 -21 -3
-60 12 -60 23 0 5 -4 9 -10 9 -5 0 -10 -4 -10 -9z"/>
<path d="M961 814 c0 -11 3 -14 6 -6 3 7 2 16 -1 19 -3 4 -6 -2 -5 -13z"/>
<path d="M1226 589 c-21 -16 -35 -29 -30 -29 6 0 25 13 44 30 45 37 37 37 -14
-1z"/>
<path d="M907 692 c10 -19 24 -39 32 -45 12 -10 12 -9 3 8 -6 11 -21 31 -33
45 l-21 25 19 -33z"/>
<path d="M620 1379 c0 -5 5 -7 10 -4 6 3 10 8 10 11 0 2 -4 4 -10 4 -5 0 -10
-5 -10 -11z"/>
<path d="M450 1335 l-25 -15 30 6 c33 7 58 24 35 24 -8 -1 -26 -7 -40 -15z"/>
<path d="M510 1310 l-25 -8 28 -1 c15 -1 27 4 27 9 0 6 -1 10 -2 9 -2 -1 -14
-5 -28 -9z"/>
<path d="M580 1309 c0 -5 5 -7 10 -4 6 3 10 8 10 11 0 2 -4 4 -10 4 -5 0 -10
-5 -10 -11z"/>
<path d="M388 1283 c-23 -6 -23 -19 -1 -27 15 -6 32 8 33 27 0 7 -4 7 -32 0z"/>
<path d="M445 970 c-3 -5 -1 -10 4 -10 6 0 11 5 11 10 0 6 -2 10 -4 10 -3 0
-8 -4 -11 -10z"/>
<path d="M366 927 c3 -10 9 -15 12 -12 3 3 0 11 -7 18 -10 9 -11 8 -5 -6z"/>
<path d="M248 583 c7 -3 16 -2 19 1 4 3 -2 6 -13 5 -11 0 -14 -3 -6 -6z"/>
<path d="M790 450 c0 -23 25 -27 33 -6 7 16 -1 26 -20 26 -7 0 -13 -9 -13 -20z"/>
<path d="M920 461 c0 -10 25 -21 48 -21 15 1 14 3 -2 15 -22 17 -46 20 -46 6z"/>
</g>
</svg>
